<svg xmlns="http://www.w3.org/2000/svg" viewBox="0 0 28 28"><defs><style>.cls-1{fill:#fff;}</style></defs><g id="click"><path class="cls-1" d="M26.26,14.33l-1.17-2.4a2.94,2.94,0,0,0-1.39-1.54,1.52,1.52,0,0,0-1.25.07,1.57,1.57,0,0,0-.69.63,1.94,1.94,0,0,0-.82-.61,1.52,1.52,0,0,0-1.28.07,1.73,1.73,0,0,0-.74.67,1.92,1.92,0,0,0-.65-.44,1.64,1.64,0,0,0-1.33.09,1.81,1.81,0,0,0-.64.51L15,8.75V2.85a.71.71,0,0,0-1.19-.51L7.67,8.16H1.42A1.41,1.41,0,0,0,0,9.57v7.71a1.41,1.41,0,0,0,1.41,1.41H7.67l6.09,5.82a.7.7,0,0,0,.48.19.71.71,0,0,0,.28-.06A.7.7,0,0,0,15,24V21.4l1.4,1.28c3.16,2.68,4.09,2.82,4.61,2.56l6.5-3.19.07-.09A3,3,0,0,0,28,20.14,13.88,13.88,0,0,0,26.26,14.33Zm.55,7-6.25,3.06c-.08,0-.79,0-3.61-2.43-.7-.6-1.43-1.25-2-1.78l0,0h0c-.8-.74-1.39-1.32-1.53-1.46l0,0a1.69,1.69,0,0,1-.6-.95.58.58,0,0,1,.22-.47.53.53,0,0,1,.41-.16,2.29,2.29,0,0,1,1.24.7l.34.34h0l1.51,1.54.83-.41-2.34-4.66-2-4.07v0a2.07,2.07,0,0,1-.27-1.29A.64.64,0,0,1,13,8.8a.56.56,0,0,1,.44,0,2.36,2.36,0,0,1,1,1L15,10.89l1.29,2.52a1.17,1.17,0,0,0,.1.2l1.05,2.14.85-.42L17.1,13a1.41,1.41,0,0,1-.12-.88.79.79,0,0,1,.95-.46,1.51,1.51,0,0,1,.68.77l.35.71c.07.17.14.3.17.36l.55,1.11.85-.42-.69-1.4a1.63,1.63,0,0,1-.15-1,.62.62,0,0,1,.39-.42.61.61,0,0,1,.52-.05,2,2,0,0,1,.84,1l.84,1.73.86-.42-.43-.88a1.84,1.84,0,0,1-.18-1.1.59.59,0,0,1,.34-.37.57.57,0,0,1,.49,0,2,2,0,0,1,.85,1l1.2,2.45C27.55,19.11,27,20.9,26.81,21.31Z"/></g></svg>