<svg id="play" xmlns="http://www.w3.org/2000/svg" viewBox="0 0 28 28"><defs><style>.cls-1{fill:#fff;}</style></defs><path class="cls-1" d="M11,5.54a.54.54,0,0,0-.57.1L5.84,10H1.13A1.07,1.07,0,0,0,.07,11.09v5.82A1.07,1.07,0,0,0,1.13,18H5.84l4.6,4.39a.54.54,0,0,0,.36.14.52.52,0,0,0,.53-.53V6A.52.52,0,0,0,11,5.54Z"/><path class="cls-1" d="M26.15,18.34A7.19,7.19,0,0,0,25.48,8.2l-.76.86a6,6,0,1,1-8.52.57l.79.69.46-3-2.9.85.79.69a7.19,7.19,0,0,0,10.81,9.47Z"/><path class="cls-1" d="M20,11.44l3.28,1.9a.48.48,0,0,1,0,.83L20,16.06a.48.48,0,0,1-.72-.42V11.86A.48.48,0,0,1,20,11.44Z"/></svg>